# xmcd
#
# Track frame offsets:
#	150
#	15885
#	31668
#	50131
#	66679
#	81939
#	101018
#	117083
#	132376
#	149696
#	164831
#	177949
#	193594
#
# Disc length: 2788 seconds
#
# Revision: 1
# Processed by: cddbd v1.5.2PL0 Copyright (c) Steve Scherf et al.
# Submitted via: audiograbber 1.83.01
#
DISCID=be0ae20d
DTITLE=Linda Hesse - Mach ma laut 
DYEAR=2018
DGENRE=Schlager
TTITLE0=Mach ma laut
TTITLE1=Herz voraus
TTITLE2=Kleine Stadt - große Träume
TTITLE3=Völlig normal
TTITLE4=Ein Kuss (...will mehr!)
TTITLE5=Denk wieder nur an dich
TTITLE6=Zirkus
TTITLE7=Hey du
TTITLE8=Die Braut
TTITLE9=Ich pfeif drauf
TTITLE10=Goodbye
TTITLE11=Herz voraus (Fan-Mix)
TTITLE12=Mach ma laut (Fan-Mix)
EXTD=
EXTT0=
EXTT1=
EXTT2=
EXTT3=
EXTT4=
EXTT5=
EXTT6=
EXTT7=
EXTT8=
EXTT9=
EXTT10=
EXTT11=
EXTT12=
PLAYORDER=
